<svg width="57" height="57" viewBox="0 0 57 57" fill="none" xmlns="http://www.w3.org/2000/svg">
<g clip-path="url(#clip0_81_127)">
<path d="M28.5 57C44.2401 57 57 44.2401 57 28.5C57 12.7599 44.2401 0 28.5 0C12.7599 0 0 12.7599 0 28.5C0 44.2401 12.7599 57 28.5 57Z" fill="#34625C"/>
<path d="M44.5312 40.2206L32.0803 34.4173V21.5567L44.5312 17.141V40.2206ZM26.4035 46.3125L14.25 40.6499V17.7377L26.4035 23.4021V46.3125ZM44.2338 16.3109L44.0325 16.3822L32.0803 20.6233L31.7811 20.7302L26.717 22.5257L14.7292 16.9397L31.7811 10.8906L31.9307 10.8371L32.246 10.7249L32.3564 10.6875L44.3442 16.2735L44.232 16.3109H44.2338Z" fill="#D9D9D9"/>
</g>
<defs>
<clipPath id="clip0_81_127">
<rect width="57" height="57" fill="white"/>
</clipPath>
</defs>
</svg>
