<svg width="48" height="48" viewBox="0 0 48 48" fill="none" xmlns="http://www.w3.org/2000/svg">
<g clip-path="url(#clip0_181_2)">
<path d="M28.228 23.986L47.092 5.12201C48.264 3.95101 48.264 2.05101 47.092 0.880007C45.92 -0.291993 44.022 -0.291993 42.85 0.880007L23.986 19.744L5.121 0.880007C3.949 -0.291993 2.051 -0.291993 0.879 0.880007C-0.293 2.05101 -0.293 3.95101 0.879 5.12201L19.744 23.986L0.879 42.85C-0.293 44.021 -0.293 45.921 0.879 47.092C1.465 47.677 2.233 47.97 3 47.97C3.767 47.97 4.535 47.677 5.121 47.091L23.986 28.227L42.85 47.091C43.436 47.677 44.204 47.97 44.971 47.97C45.738 47.97 46.506 47.677 47.092 47.091C48.264 45.92 48.264 44.02 47.092 42.849L28.228 23.986Z" fill="white"/>
</g>
<defs>
<clipPath id="clip0_181_2">
<rect width="47.971" height="47.971" fill="white"/>
</clipPath>
</defs>
</svg>
