<svg width="32" height="32" viewBox="0 0 32 32" fill="none" xmlns="http://www.w3.org/2000/svg">
<g clip-path="url(#clip0_90_190)">
<path d="M16 0C7.16379 0 0 7.16379 0 16C0 24.8362 7.16379 32 16 32C24.8362 32 32 24.8362 32 16C32 7.16379 24.8362 0 16 0ZM20.5959 22.3078C19.8979 23.1572 18.9893 23.73 17.9292 24.0198C17.4683 24.1449 17.2576 24.3885 17.284 24.8691C17.3037 25.3432 17.2839 25.8107 17.2774 26.2848C17.2774 26.7062 17.0601 26.93 16.6453 26.9432C16.3753 26.9498 16.1053 26.9564 15.8354 26.9564C15.5984 26.9564 15.3613 26.9564 15.1243 26.9498C14.6765 26.9432 14.4658 26.6864 14.4658 26.2519C14.4593 25.9095 14.4593 25.5605 14.4593 25.2181C14.4527 24.4543 14.4263 24.428 13.6955 24.3095C12.7605 24.158 11.8387 23.9473 10.9827 23.5325C10.3111 23.2033 10.2387 23.0387 10.4296 22.3276C10.5745 21.8008 10.7193 21.2741 10.884 20.7539C11.0025 20.372 11.1144 20.2008 11.3185 20.2008C11.437 20.2008 11.5885 20.2601 11.7926 20.3654C12.7407 20.8593 13.7481 21.1358 14.8082 21.2675C14.986 21.2872 15.1638 21.3004 15.3416 21.3004C15.8354 21.3004 16.316 21.2082 16.7835 21.0041C17.9621 20.4905 18.1465 19.1276 17.1523 18.3111C16.8165 18.0346 16.428 17.8305 16.0263 17.6527C14.9926 17.1984 13.9193 16.856 12.9449 16.27C11.3646 15.3218 10.3638 14.0247 10.4823 12.1021C10.614 9.92922 11.8453 8.57284 13.8403 7.84856C14.6634 7.55226 14.67 7.55885 14.67 6.70288C14.67 6.41317 14.6634 6.12346 14.6765 5.82716C14.6963 5.18189 14.8016 5.06996 15.4469 5.05021C15.5193 5.05021 15.5984 5.05021 15.6708 5.05021C15.7959 5.05021 15.921 5.05021 16.0461 5.05021C16.0988 5.05021 16.1514 5.05021 16.1975 5.05021C17.4222 5.05021 17.4222 5.10288 17.4288 6.42634C17.4354 7.40082 17.4354 7.40082 18.4033 7.55226C19.1473 7.67078 19.8519 7.88807 20.5366 8.19095C20.9119 8.35556 21.0568 8.61893 20.9383 9.02058C20.7671 9.61317 20.6025 10.2123 20.4181 10.7984C20.2996 11.1539 20.1877 11.3185 19.977 11.3185C19.8584 11.3185 19.7136 11.2724 19.5292 11.1802C18.5811 10.7193 17.5868 10.4955 16.5465 10.4955C16.4148 10.4955 16.2765 10.5021 16.1449 10.5086C15.8354 10.5284 15.5325 10.5679 15.2428 10.693C14.2156 11.1407 14.051 12.2733 14.9267 12.9712C15.3679 13.3267 15.8749 13.577 16.3951 13.7942C17.3037 14.1695 18.2123 14.5317 19.0749 15.0058C21.7877 16.5202 22.5251 19.9638 20.5959 22.3078Z" fill="white"/>
</g>
<defs>
<clipPath id="clip0_90_190">
<rect width="32" height="32" fill="white"/>
</clipPath>
</defs>
</svg>
