<svg width="56" height="54" viewBox="0 0 56 54" fill="none" xmlns="http://www.w3.org/2000/svg">
<path d="M44 29.0769C42.67 29.0769 41.396 29.3116 40.2 29.7249L36.064 21.6706C38.476 19.3922 40 16.1148 40 12.4615C40 5.57862 34.628 0 28 0C21.372 0 16 5.57862 16 12.4615C16 16.1148 17.524 19.3922 19.936 21.6706L15.8 29.7249C14.604 29.3116 13.33 29.0769 12 29.0769C5.372 29.0769 0 34.6555 0 41.5385C0 48.4214 5.372 54 12 54C17.944 54 22.866 49.5076 23.82 43.6154H32.18C33.134 49.5076 38.056 54 44 54C50.628 54 56 48.4214 56 41.5385C56 34.6555 50.628 29.0769 44 29.0769ZM23.308 23.9324C24.75 24.57 26.334 24.9231 28 24.9231C29.666 24.9231 31.25 24.57 32.692 23.9324L36.674 31.6835C34.338 33.5589 32.692 36.3067 32.18 39.4595H23.82C23.31 36.3067 21.664 33.5589 19.326 31.6835L23.308 23.9324Z" fill="#2D6ACA"/>
</svg>
