<svg width="57" height="57" viewBox="0 0 57 57" fill="none" xmlns="http://www.w3.org/2000/svg">
<path d="M28.5 0C12.7605 0 0 12.7605 0 28.5C0 44.2395 12.7605 57 28.5 57C44.2395 57 57 44.2395 57 28.5C57 12.7605 44.2395 0 28.5 0ZM36.6864 39.7358C35.4432 41.2488 33.8247 42.2691 31.9364 42.7852C31.1154 43.008 30.7401 43.442 30.787 44.2981C30.8222 45.1426 30.787 45.9753 30.7753 46.8198C30.7753 47.5704 30.3883 47.9691 29.6494 47.9926C29.1685 48.0043 28.6877 48.016 28.2068 48.016C27.7846 48.016 27.3623 48.016 26.9401 48.0043C26.1426 47.9926 25.7673 47.5352 25.7673 46.7611C25.7556 46.1512 25.7556 45.5296 25.7556 44.9198C25.7438 43.5593 25.6969 43.5123 24.3951 43.3012C22.7296 43.0315 21.0877 42.6562 19.563 41.9173C18.3667 41.3309 18.2377 41.0377 18.5778 39.771C18.8358 38.8327 19.0938 37.8944 19.387 36.9679C19.5981 36.2877 19.7975 35.9827 20.1611 35.9827C20.3722 35.9827 20.642 36.0883 21.0056 36.2759C22.6944 37.1556 24.4889 37.6481 26.3772 37.8827C26.6938 37.9179 27.0105 37.9414 27.3272 37.9414C28.2068 37.9414 29.063 37.7772 29.8957 37.4136C31.9951 36.4988 32.3235 34.071 30.5525 32.6167C29.9543 32.1241 29.2623 31.7605 28.5469 31.4438C26.7056 30.6346 24.7938 30.0247 23.058 28.9809C20.2432 27.292 18.4605 24.9815 18.6716 21.5568C18.9062 17.6864 21.0994 15.2704 24.6531 13.9802C26.1191 13.4525 26.1309 13.4642 26.1309 11.9395C26.1309 11.4235 26.1191 10.9074 26.1426 10.3796C26.1778 9.23025 26.3654 9.03086 27.5148 8.99568C27.6438 8.99568 27.7846 8.99568 27.9136 8.99568C28.1364 8.99568 28.3593 8.99568 28.5821 8.99568C28.6759 8.99568 28.7698 8.99568 28.8519 8.99568C31.0333 8.99568 31.0333 9.08951 31.0451 11.4469C31.0568 13.1827 31.0568 13.1827 32.7809 13.4525C34.1062 13.6636 35.3611 14.0506 36.5809 14.5901C37.2494 14.8833 37.5074 15.3525 37.2963 16.0679C36.9914 17.1235 36.6981 18.1907 36.3698 19.2346C36.1586 19.8679 35.9593 20.1611 35.5839 20.1611C35.3728 20.1611 35.1148 20.079 34.7864 19.9148C33.0975 19.0938 31.3265 18.6951 29.4735 18.6951C29.2389 18.6951 28.9926 18.7068 28.758 18.7185C28.2068 18.7537 27.6673 18.8241 27.1512 19.0469C25.3216 19.8444 25.0284 21.8617 26.5883 23.1049C27.3741 23.7383 28.2772 24.184 29.2037 24.571C30.8222 25.2395 32.4407 25.8846 33.9772 26.729C38.8093 29.4265 40.1228 35.5605 36.6864 39.7358Z" fill="#0F3B7E"/>
</svg>
