<svg width="28" height="28" viewBox="0 0 28 28" fill="none" xmlns="http://www.w3.org/2000/svg">
<g clip-path="url(#clip0_17_17)">
<path d="M14 0.346456C6.26588 0.346456 0 6.61758 0 14.3465C0 20.5353 4.011 25.781 9.56988 27.6316C10.2725 27.7637 10.5262 27.3306 10.5262 26.9561C10.5262 26.6236 10.5184 25.7442 10.5131 24.577C6.61675 25.4205 5.796 22.6948 5.796 22.6948C5.15812 21.0813 4.23763 20.6482 4.23763 20.6482C2.97062 19.7828 4.33825 19.8012 4.33825 19.8012C5.74175 19.8966 6.48025 21.2406 6.48025 21.2406C7.72888 23.3826 9.75625 22.7631 10.5586 22.4026C10.6811 21.5005 11.046 20.8801 11.4432 20.5345C8.33525 20.1836 5.06712 18.9805 5.06712 13.6158C5.06712 12.0837 5.60962 10.836 6.5065 9.85596C6.35162 9.50508 5.87738 8.07883 6.62988 6.15033C6.62988 6.15033 7.8015 5.77671 10.4799 7.58621C11.6007 7.27558 12.7908 7.12071 13.9799 7.11283C15.1699 7.12071 16.359 7.27646 17.4799 7.58621C20.1425 5.77671 21.3132 6.15033 21.3132 6.15033C22.0649 8.07883 21.5906 9.50421 21.4541 9.85596C22.3422 10.836 22.8848 12.0846 22.8848 13.6158C22.8848 18.9927 19.6122 20.1783 16.5007 20.5205C16.9872 20.9396 17.4431 21.8015 17.4431 23.1096C17.4431 24.9821 17.4256 26.4906 17.4256 26.9465C17.4256 27.3105 17.6706 27.748 18.3916 27.6071C23.9916 25.7757 27.9982 20.5257 27.9982 14.3456C27.9982 6.61671 21.7324 0.345581 13.9983 0.345581L14 0.346456Z" fill="white"/>
</g>
<defs>
<clipPath id="clip0_17_17">
<rect width="28" height="28" fill="white"/>
</clipPath>
</defs>
</svg>
