<svg width="23" height="30" viewBox="0 0 23 30" fill="none" xmlns="http://www.w3.org/2000/svg">
<path d="M11.3479 0C5.09063 0 0 5.09071 0 11.3479C0 13.9289 1.77906 17.7032 5.28763 22.5658C7.82421 26.0814 10.3199 28.859 10.4248 28.9756L11.348 30.0001L12.2712 28.9756C12.3762 28.8591 14.8718 26.0814 17.4084 22.5658C20.917 17.7032 22.696 13.929 22.696 11.3479C22.696 5.09071 17.6053 0 11.3479 0ZM11.3479 26.2578C8.22202 22.6034 2.4853 15.1177 2.4853 11.3479C2.4853 6.46111 6.46102 2.4853 11.3479 2.4853C16.2349 2.4853 20.2106 6.46111 20.2106 11.3479C20.2107 15.1177 14.4739 22.6034 11.3479 26.2578Z" fill="white"/>
<path d="M11.3479 15.465C13.6217 15.465 15.4649 13.6218 15.4649 11.348C15.4649 9.07428 13.6217 7.23105 11.3479 7.23105C9.07419 7.23105 7.23096 9.07428 7.23096 11.348C7.23096 13.6218 9.07419 15.465 11.3479 15.465Z" fill="white"/>
</svg>
