<svg width="44" height="44" viewBox="0 0 44 44" fill="none" xmlns="http://www.w3.org/2000/svg">
<g clip-path="url(#clip0_175_2)">
<path d="M4.4 8.8H39.6C42.03 8.8 44 6.82997 44 4.4C44 1.97003 42.03 0 39.6 0H4.4C1.97003 0 0 1.97003 0 4.4C0 6.82997 1.97003 8.8 4.4 8.8Z" fill="white"/>
<path d="M39.6 17.6H4.4C1.97003 17.6 0 19.57 0 22C0 24.43 1.97003 26.4 4.4 26.4H39.6C42.03 26.4 44 24.43 44 22C44 19.57 42.03 17.6 39.6 17.6Z" fill="white"/>
<path d="M39.6 35.2H4.4C1.97003 35.2 0 37.17 0 39.6C0 42.03 1.97003 44 4.4 44H39.6C42.03 44 44 42.03 44 39.6C44 37.17 42.03 35.2 39.6 35.2Z" fill="white"/>
</g>
<defs>
<clipPath id="clip0_175_2">
<rect width="44" height="44" fill="white"/>
</clipPath>
</defs>
</svg>
