<svg width="512" height="512" viewBox="0 0 512 512" fill="none" xmlns="http://www.w3.org/2000/svg">
<path d="M480 128C480 110.328 465.672 96 448 96H432V32C432 14.328 417.672 0 400 0C382.328 0 368 14.328 368 32V96H304V32C304 14.328 289.672 0 272 0C254.328 0 240 14.328 240 32V96H224C206.328 96 192 110.328 192 128C192 143.473 202.987 156.379 217.584 159.352L258.039 267.235C262.719 279.727 274.664 288 288 288H304V384C304 419.289 275.289 448 240 448C204.711 448 176 419.289 176 384C176 322.242 125.758 272 64 272C46.328 272 32 286.328 32 304C32 321.672 46.328 336 64 336C90.469 336 112 357.531 112 384C112 454.578 169.422 512 240 512C310.578 512 368 454.578 368 384V288H384C397.336 288 409.281 279.727 413.961 267.234L454.416 159.351C469.013 156.379 480 143.473 480 128Z" fill="white"/>
</svg>
