<svg width="118" height="126" viewBox="0 0 118 126" fill="none" xmlns="http://www.w3.org/2000/svg">
<path d="M113 36.5C113 30.3543 108.224 25.672 102.5 24.967V16.625C102.5 9.9491 96.8642 5 90.5 5C84.1358 5 78.5 9.9491 78.5 16.625V24.875H74.5V16.625C74.5 9.9491 68.8642 5 62.5 5C56.1358 5 50.5 9.9491 50.5 16.625V24.967C44.7762 25.672 40 30.3543 40 36.5C40 41.2432 42.8697 45.133 46.7956 46.9718L54.797 67.1663C54.7972 67.1668 54.7974 67.1673 54.7976 67.1678C56.4344 71.301 60.2489 74.0128 64.5 74.5334V89.5C64.5 93.7887 60.721 97.75 55.5 97.75C50.279 97.75 46.5 93.7887 46.5 89.5C46.5 73.6969 33.008 61.3125 17 61.3125C10.6358 61.3125 5 66.2616 5 72.9375C5 79.6134 10.6358 84.5625 17 84.5625C20.2916 84.5625 22.5 87.0373 22.5 89.5C22.5 107.129 37.5626 121 55.5 121C73.4374 121 88.5 107.129 88.5 89.5V74.5334C92.7517 74.0127 96.5666 71.3003 98.203 67.166L106.204 46.9717C110.13 45.133 113 41.2431 113 36.5Z" stroke="white" stroke-width="10"/>
</svg>
