<svg width="50" height="50" viewBox="0 0 50 50" fill="none" xmlns="http://www.w3.org/2000/svg">
<g clip-path="url(#clip0_19_80)">
<path d="M49.3928 7.8974C49.01 7.58783 48.5058 7.46827 48.0245 7.57131C48.0097 7.57446 46.5157 7.88848 44.1755 7.88848C39.4602 7.88848 32.4945 6.68435 26.0876 0.948048C25.4684 0.393701 24.5317 0.393701 23.9124 0.948048C17.5058 6.68414 10.5399 7.88837 5.82446 7.88848C3.4838 7.88848 1.99054 7.57446 1.97946 7.57207C1.49696 7.46631 0.993043 7.5849 0.60837 7.89446C0.223696 8.20392 0 8.67109 0 9.16479C0 24.7391 4.81565 34.3307 8.85554 39.6345C14.3777 46.8845 20.8161 49.4677 25 49.4677C29.1839 49.4677 35.6224 46.8845 41.1445 39.6345C45.1843 34.3307 50 24.739 50 9.16479C50 8.6724 49.7758 8.20685 49.3928 7.8974ZM38.2695 20.4925L23.6878 35.0741C23.3695 35.3925 22.9522 35.5517 22.535 35.5517C22.1178 35.5517 21.7004 35.3926 21.3822 35.0741L13.035 26.727C12.3983 26.0902 12.3983 25.0579 13.035 24.4212C13.6716 23.7845 14.704 23.7845 15.3408 24.4212L22.5351 31.6154L35.9639 18.1867C36.6005 17.5501 37.6329 17.55 38.2697 18.1867C38.9063 18.8235 38.9063 19.8558 38.2695 20.4925Z" fill="#4A9F96"/>
</g>
<defs>
<clipPath id="clip0_19_80">
<rect width="50" height="50" fill="white"/>
</clipPath>
</defs>
</svg>
