<svg width="40" height="40" viewBox="0 0 40 40" fill="none" xmlns="http://www.w3.org/2000/svg">
<g clip-path="url(#clip0_73_58)">
<path d="M1.35963 30.8641L2.126 31.5071L2.76874 30.7405L13.7797 17.6068L24.7635 29.3423L25.5348 30.1664L26.2599 29.3014L38.413 14.8048L39.0553 14.0385L38.2892 13.3961L36.2861 11.7165L35.5197 11.0739L34.8772 11.8403L25.3452 23.2108L14.3614 11.4759L13.5902 10.6519L12.865 11.5168L-0.766304 27.7753L-1.40852 28.5413L-0.642787 29.1839L1.35963 30.8641Z" fill="#2C6ACA" stroke="#2D6ACA" stroke-width="2"/>
<path d="M31.6593 9.13801L26.8766 10.4874L30.2984 14.091L35.8077 19.8931L39.5502 23.8344L40.8905 18.5672L42.9073 10.6418L44.1896 5.60285L39.1854 7.01469L31.6593 9.13801Z" fill="#2C6ACA" stroke="#2D6ACA" stroke-width="6"/>
</g>
<defs>
<clipPath id="clip0_73_58">
<rect width="40" height="40" fill="white"/>
</clipPath>
</defs>
</svg>
