<svg width="512" height="512" viewBox="0 0 512 512" fill="none" xmlns="http://www.w3.org/2000/svg">
<path d="M495 17C487 9 474.1 9 466.1 17L426.2 56.9C409.4 45.7 389.8 39.7 369.2 39.7C341.7 39.7 315.8 50.4 296.3 69.9L237.9 128.3C229.9 136.3 229.9 149.2 237.9 157.2L354.8 274.1C367.3 285.4 379.8 277.9 383.7 274.1L442.1 215.7C477.3 180.5 481.7 125.8 455.1 85.8L495 45.9C503 37.9 503 25 495 17V17ZM413.2 186.8L369.2 230.8L281.2 142.8L325.2 98.8C337 87 352.6 80.6 369.2 80.6C385.8 80.6 401.5 87.1 413.2 98.8C437.5 123 437.5 162.5 413.2 186.8Z" fill="white"/>
<path d="M268.9 274.5L231.3 312L200 280.6L237.5 243.1C245.5 235.1 245.5 222.2 237.5 214.2C229.5 206.2 216.6 206.2 208.6 214.2L171.1 251.7L157.2 237.8C153.4 234 141.1 226.6 128.3 237.8L69.9 296.2C34.7 331.4 30.3 386.1 56.9 426.1L17 466.1C9 474.1 9 487 17 495C25 503 37.9 503 45.9 495L85.8 455.1C102.6 466.3 122.2 472.3 142.8 472.3C170.3 472.3 196.2 461.6 215.7 442.1L274.1 383.7C282.1 375.7 282.1 362.8 274.1 354.8L260.2 340.9L297.7 303.4C305.7 295.4 305.7 282.5 297.7 274.5C289.8 266.5 276.8 266.5 268.9 274.5ZM186.8 413.2C175 425 159.4 431.4 142.8 431.4C126.2 431.4 110.5 424.9 98.8 413.2C74.5 388.9 74.5 349.4 98.8 325.2L142.8 281.2L230.8 369.2L186.8 413.2Z" fill="white"/>
</svg>
