<svg width="28" height="28" viewBox="0 0 28 28" fill="none" xmlns="http://www.w3.org/2000/svg">
<path d="M23.7381 2.55708L17.2051 0.494047C16.1683 0.166633 15.0874 0 14 0C12.9126 0 11.8317 0.166633 10.7949 0.494047L4.26191 2.55708C2.8968 2.98818 1.96875 4.25447 1.96875 5.68602V17.0277C1.96875 19.1128 2.95969 21.0739 4.63838 22.3109L11.0386 27.0268C11.8966 27.659 12.9343 28 14 28C15.0657 28 16.1034 27.659 16.9614 27.0268L23.3616 22.3109C25.0403 21.0739 26.0312 19.1128 26.0312 17.0277V5.68602C26.0312 4.25447 25.1032 2.98818 23.7381 2.55708ZM19.0271 12.4532L13.6133 17.867C12.9726 18.5077 11.9338 18.5077 11.2931 17.867L8.97291 15.5468C8.33219 14.9061 8.33219 13.8673 8.97291 13.2267C9.61363 12.5859 10.6524 12.5859 11.2931 13.2267L12.4532 14.3867L16.7069 10.133C17.3476 9.49233 18.3864 9.49233 19.027 10.133C19.6678 10.7737 19.6678 11.8125 19.0271 12.4532Z" fill="white"/>
</svg>
